<svg width="94" height="34" viewBox="0 0 94 34" fill="none" xmlns="http://www.w3.org/2000/svg">
<path d="M0.36853 0.145142V33.3058H6.32708L6.58615 18.5389L9.17682 33.3058H12.5447L15.1354 18.5389V33.3058H26.5343L27.3115 28.3835H31.9747L32.7519 33.3058H44.41V22.684H45.7053L48.296 33.3058H54.2545L50.6276 20.8705C52.6694 18.8196 53.6339 17.4444 54.2545 13.6166L57.6224 33.3058H64.8763L69.5395 4.03115V33.3058H80.9385V27.3472H75.4981V19.8343H80.9385V13.6166H75.4981V6.36276H80.9385V0.145142H64.0991L61.2494 21.3887L58.9178 0.145142H52.182L52.7001 5.06742C51.6639 2.47675 48.296 0.145142 46.2235 0.145142H38.1924V29.1607L34.0473 0.145142H25.7571L21.353 30.197V0.145142H13.581L10.7312 16.4664L7.88148 0.145142H0.36853Z" fill="#F9F9F9"/>
<path d="M81.9747 33.3058V0.145142H87.9333V27.6063H93.1146V33.3058H81.9747Z" fill="#F9F9F9"/>
</svg>
